<?xml version="1.0" encoding="UTF-8" standalone="no"?>
<!-- Created with Inkscape (http://www.inkscape.org/) -->

<svg
   xmlns:dc="http://purl.org/dc/elements/1.1/"
   xmlns:cc="http://creativecommons.org/ns#"
   xmlns:rdf="http://www.w3.org/1999/02/22-rdf-syntax-ns#"
   xmlns:svg="http://www.w3.org/2000/svg"
   xmlns="http://www.w3.org/2000/svg"
   xmlns:sodipodi="http://sodipodi.sourceforge.net/DTD/sodipodi-0.dtd"
   xmlns:inkscape="http://www.inkscape.org/namespaces/inkscape"
   version="1.1"
   id="svg3163"
   xml:space="preserve"
   width="800"
   height="800"
   viewBox="0 0 800 800"
   sodipodi:docname="guitars-electric-publicdomainvectors.org.svg"
   inkscape:version="0.92.4 (5da689c313, 2019-01-14)"><metadata
     id="metadata3169"><rdf:RDF><cc:Work
         rdf:about=""><dc:format>image/svg+xml</dc:format><dc:type
           rdf:resource="http://purl.org/dc/dcmitype/StillImage" /><dc:title></dc:title></cc:Work></rdf:RDF></metadata><defs
     id="defs3167"><clipPath
       clipPathUnits="userSpaceOnUse"
       id="clipPath3179"><path
         d="M 0,600 H 600 V 0 H 0 Z"
         id="path3177"
         inkscape:connector-curvature="0" /></clipPath></defs><sodipodi:namedview
     pagecolor="#ffffff"
     bordercolor="#666666"
     borderopacity="1"
     objecttolerance="10"
     gridtolerance="10"
     guidetolerance="10"
     inkscape:pageopacity="0"
     inkscape:pageshadow="2"
     inkscape:window-width="724"
     inkscape:window-height="480"
     id="namedview3165"
     showgrid="false"
     inkscape:zoom="0.295"
     inkscape:cx="400"
     inkscape:cy="400"
     inkscape:window-x="0"
     inkscape:window-y="0"
     inkscape:window-maximized="0"
     inkscape:current-layer="g3171" /><g
     id="g3171"
     inkscape:groupmode="layer"
     inkscape:label="guitars-electric-publicdomainvectors.org"
     transform="matrix(1.3333333,0,0,-1.3333333,0,800)"><g
       id="g3173"><g
         id="g3175"
         clip-path="url(#clipPath3179)"><path
           d="m 343.389,263.887 c -0.163,0 -0.298,-0.134 -0.298,-0.299 0,-0.328 0.597,-0.324 0.597,0 0,0.165 -0.134,0.299 -0.299,0.299 m 0,-2.029 c -0.953,0 -1.73,0.777 -1.73,1.73 0,0.955 0.777,1.73 1.73,1.73 0.954,0 1.729,-0.775 1.729,-1.73 0,-0.953 -0.775,-1.73 -1.729,-1.73 m 28.158,-9.598 c -0.165,0 -0.3,-0.134 -0.3,-0.298 0,-0.328 0.598,-0.331 0.598,0 0,0.164 -0.135,0.298 -0.298,0.298 m 0,-2.029 c -0.955,0 -1.73,0.776 -1.73,1.731 0,0.953 0.775,1.729 1.73,1.729 0.953,0 1.729,-0.776 1.729,-1.729 0,-0.955 -0.776,-1.731 -1.729,-1.731 m 80.456,-62.268 c 0,0.163 -0.134,0.297 -0.298,0.297 -0.165,0 -0.298,-0.134 -0.298,-0.297 0,-0.326 0.596,-0.329 0.596,0 m -0.298,1.728 c 0.954,0 1.731,-0.775 1.731,-1.728 0,-0.954 -0.777,-1.73 -1.731,-1.73 -0.954,0 -1.729,0.776 -1.729,1.73 0,0.953 0.775,1.728 1.729,1.728 m -20.696,17.357 c 0,0.164 -0.135,0.299 -0.298,0.299 -0.164,0 -0.298,-0.135 -0.298,-0.299 0,-0.327 0.596,-0.327 0.596,0 m -0.298,1.73 c 0.953,0 1.73,-0.776 1.73,-1.73 0,-0.954 -0.777,-1.73 -1.73,-1.73 -0.953,0 -1.729,0.776 -1.729,1.73 0,0.954 0.776,1.73 1.729,1.73 m -8.527,30.239 c 0,0.163 -0.136,0.297 -0.3,0.297 -0.164,0 -0.298,-0.134 -0.298,-0.297 0,-0.331 0.598,-0.329 0.598,0 m -0.3,1.728 c 0.954,0 1.731,-0.775 1.731,-1.728 0,-0.955 -0.777,-1.731 -1.731,-1.731 -0.953,0 -1.729,0.776 -1.729,1.731 0,0.953 0.776,1.728 1.729,1.728 m -6.738,72.188 c -0.165,0 -0.298,-0.135 -0.298,-0.3 0,-0.327 0.595,-0.327 0.595,0 0,0.165 -0.134,0.3 -0.297,0.3 m 0,-2.029 c -0.954,0 -1.731,0.776 -1.731,1.729 0,0.955 0.777,1.729 1.731,1.729 0.953,0 1.727,-0.774 1.727,-1.729 0,-0.953 -0.774,-1.729 -1.727,-1.729 m 24.272,-6.719 c -0.163,0 -0.298,-0.134 -0.298,-0.298 0,-0.331 0.597,-0.328 0.597,0 0,0.164 -0.134,0.298 -0.299,0.298 m 0,-2.028 c -0.953,0 -1.729,0.775 -1.729,1.73 0,0.953 0.776,1.729 1.729,1.729 0.955,0 1.731,-0.776 1.731,-1.729 0,-0.955 -0.776,-1.73 -1.731,-1.73 m 45.27,-24.255 c 0,0.165 -0.136,0.299 -0.298,0.299 -0.164,0 -0.299,-0.134 -0.299,-0.299 0,-0.327 0.597,-0.327 0.597,0 m -2.029,0 c 0,0.954 0.778,1.731 1.731,1.731 0.952,0 1.728,-0.777 1.728,-1.731 0,-0.953 -0.776,-1.729 -1.728,-1.729 -0.953,0 -1.731,0.776 -1.731,1.729 m -15.923,21.471 c -0.165,0 -0.299,-0.133 -0.299,-0.298 0,-0.325 0.597,-0.328 0.597,0 0,0.165 -0.135,0.298 -0.298,0.298 m 0,-2.026 c -0.955,0 -1.731,0.775 -1.731,1.728 0,0.953 0.776,1.73 1.731,1.73 0.953,0 1.728,-0.777 1.728,-1.73 0,-0.953 -0.775,-1.728 -1.728,-1.728 M 234.719,402.055 c -0.69,0 -1.253,-0.563 -1.253,-1.252 0,-0.692 0.563,-1.253 1.253,-1.253 0.69,0 1.253,0.561 1.253,1.253 0,0.689 -0.563,1.252 -1.253,1.252 m 13.471,4.028 -12.098,-18.773 c 3.803,-2.419 7.732,-4.915 11.757,-7.472 l 12.397,19.236 z m -110.522,48.005 c 0,-0.987 0.802,-1.789 1.789,-1.789 0.987,0 1.789,0.802 1.789,1.789 0,0.987 -0.802,1.789 -1.789,1.789 -0.987,0 -1.789,-0.802 -1.789,-1.789 m 120.261,-69.11 c 0,-1.48 1.203,-2.684 2.684,-2.684 1.48,0 2.684,1.204 2.684,2.684 0,1.48 -1.204,2.684 -2.684,2.684 -1.481,0 -2.684,-1.204 -2.684,-2.684 m 14.226,7.174 -12.691,-19.691 c -3.522,2.236 -6.994,4.439 -10.407,6.609 l 12.427,19.284 z m -10.289,-7.174 c 0,0.691 -0.563,1.252 -1.253,1.252 -0.691,0 -1.252,-0.561 -1.252,-1.252 0,-0.691 0.561,-1.252 1.252,-1.252 0.69,0 1.253,0.561 1.253,1.252 m -112.742,66.605 c 0,-0.987 0.803,-1.789 1.79,-1.789 0.986,0 1.789,0.802 1.789,1.789 0,0.987 -0.803,1.789 -1.789,1.789 -0.987,0 -1.79,-0.802 -1.79,-1.789 m 70.765,-29.047 -11.377,-17.655 c 3.893,-2.487 8.197,-5.233 12.832,-8.186 l 11.719,18.183 z m -59.32,25.661 c 0,-0.987 0.802,-1.789 1.789,-1.789 0.987,0 1.789,0.802 1.789,1.789 0,0.987 -0.802,1.789 -1.789,1.789 -0.987,0 -1.789,-0.802 -1.789,-1.789 m 23.583,-5.623 c 0,-0.987 0.802,-1.789 1.789,-1.789 0.987,0 1.789,0.802 1.789,1.789 0,0.987 -0.802,1.789 -1.789,1.789 -0.987,0 -1.789,-0.802 -1.789,-1.789 m -11.774,3.118 c 0,-0.987 0.802,-1.789 1.789,-1.789 0.987,0 1.79,0.802 1.79,1.789 0,0.987 -0.803,1.789 -1.79,1.789 -0.987,0 -1.789,-0.802 -1.789,-1.789 m 59.657,-44.889 c 0,-1.481 1.204,-2.686 2.684,-2.686 1.481,0 2.684,1.205 2.684,2.686 0,1.478 -1.203,2.683 -2.684,2.683 -1.48,0 -2.684,-1.205 -2.684,-2.683 m 14.916,6 -12.067,-18.725 c -4.303,2.736 -8.422,5.359 -12.332,7.849 l 11.749,18.231 z m -119.499,46.569 c 1.775,0 3.221,1.445 3.221,3.221 0,1.776 -1.446,3.221 -3.221,3.221 -1.775,0 -3.221,-1.445 -3.221,-3.221 0,-1.776 1.446,-3.221 3.221,-3.221 m 4.575,13.969 c 0.445,-0.088 0.892,0.225 0.975,0.66 0.085,0.444 -0.217,0.89 -0.66,0.976 l -4.455,0.857 c -0.052,0.01 -0.105,0.015 -0.155,0.015 -0.394,0 -0.745,-0.29 -0.821,-0.677 -0.04,-0.216 0.006,-0.436 0.13,-0.621 0.126,-0.186 0.315,-0.311 0.53,-0.353 z m 7.43,-16.474 c 1.775,0 3.221,1.445 3.221,3.221 0,1.776 -1.446,3.221 -3.221,3.221 -1.776,0 -3.221,-1.445 -3.221,-3.221 0,-1.776 1.445,-3.221 3.221,-3.221 m 11.457,-2.504 c 1.775,0 3.221,1.444 3.221,3.22 0,1.776 -1.446,3.221 -3.221,3.221 -1.776,0 -3.221,-1.445 -3.221,-3.221 0,-1.776 1.445,-3.22 3.221,-3.22 m 11.444,-3.387 c 1.776,0 3.221,1.445 3.221,3.221 0,1.776 -1.445,3.221 -3.221,3.221 -1.775,0 -3.22,-1.445 -3.22,-3.221 0,-1.776 1.445,-3.221 3.22,-3.221 m 10.188,7.312 0.547,2.343 -0.68,0.131 c -1.552,0.298 -2.679,1.536 -2.933,3.009 -0.657,-1.072 -1.837,-1.771 -3.153,-1.771 -0.23,0 -0.462,0.021 -0.696,0.067 l -1.643,0.316 -0.437,-1.877 z m 1.621,-9.817 c 1.775,0 3.221,1.445 3.221,3.221 0,1.776 -1.446,3.22 -3.221,3.22 -1.776,0 -3.221,-1.444 -3.221,-3.22 0,-1.776 1.445,-3.221 3.221,-3.221 m 3.243,14.245 c 0.444,-0.082 0.891,0.225 0.975,0.66 0.085,0.444 -0.217,0.89 -0.662,0.976 l -4.454,0.857 c -0.051,0.01 -0.104,0.015 -0.154,0.015 -0.394,0 -0.748,-0.29 -0.821,-0.674 -0.085,-0.444 0.217,-0.892 0.66,-0.977 z m -10.923,3.798 -4.456,0.857 c -0.052,0.01 -0.103,0.015 -0.155,0.015 -0.395,0 -0.746,-0.291 -0.82,-0.675 -0.085,-0.444 0.217,-0.89 0.662,-0.975 l 4.454,-0.858 c 0.458,-0.085 0.891,0.228 0.975,0.66 0.085,0.444 -0.217,0.891 -0.66,0.976 m -8.298,0.126 c -0.68,-0.915 -1.758,-1.503 -2.96,-1.503 -0.229,0 -0.463,0.021 -0.698,0.066 l -2.032,0.392 -0.522,-2.236 8.794,-2.168 0.405,1.734 c -1.797,0.345 -3.029,1.944 -2.987,3.715 m -2.801,3.01 -4.455,0.857 c -0.051,0.01 -0.105,0.014 -0.155,0.014 -0.394,0 -0.746,-0.29 -0.82,-0.674 -0.086,-0.443 0.216,-0.89 0.661,-0.976 l 4.455,-0.857 c 0.447,-0.087 0.892,0.225 0.974,0.66 0.086,0.443 -0.216,0.891 -0.66,0.976 m -7.67,-2.032 c -0.459,0.678 -0.663,1.47 -0.618,2.272 -0.601,-1.264 -1.877,-2.119 -3.329,-2.119 -0.23,0 -0.463,0.021 -0.696,0.066 l -1.801,0.346 -0.482,-2.068 8.407,-2.072 0.496,2.131 c -0.801,0.245 -1.499,0.737 -1.977,1.444 m -3.788,4.666 -4.455,0.857 c -0.051,0.01 -0.105,0.015 -0.155,0.015 -0.394,0 -0.746,-0.29 -0.821,-0.677 -0.04,-0.215 0.006,-0.436 0.131,-0.621 0.125,-0.186 0.314,-0.311 0.529,-0.353 l 4.457,-0.857 c 0.444,-0.089 0.892,0.225 0.974,0.66 0.085,0.444 -0.217,0.891 -0.66,0.976 m 42.011,-26.931 c 1.775,0 3.22,1.445 3.22,3.221 0,1.776 -1.445,3.221 -3.22,3.221 -1.776,0 -3.22,-1.445 -3.22,-3.221 0,-1.776 1.444,-3.221 3.22,-3.221 m 3.263,15.094 c 0.448,-0.084 0.891,0.226 0.975,0.66 0.085,0.444 -0.217,0.89 -0.661,0.975 l -4.453,0.858 c -0.052,0.009 -0.106,0.014 -0.156,0.014 -0.394,0 -0.748,-0.29 -0.821,-0.674 -0.085,-0.444 0.217,-0.891 0.66,-0.976 z m -62.905,9.24 0.123,-0.03 0.417,1.787 c -0.884,0.22 -1.651,0.738 -2.167,1.502 -0.555,0.819 -0.758,1.802 -0.572,2.768 0.377,1.962 2.279,3.323 4.328,2.931 l 4.456,-0.857 c 1.999,-0.386 3.315,-2.327 2.93,-4.326 -0.334,-1.738 -1.861,-2.998 -3.632,-2.998 -0.229,0 -0.462,0.022 -0.696,0.066 l -1.663,0.32 -0.447,-1.921 8.398,-2.07 0.456,1.95 c -0.799,0.246 -1.493,0.739 -1.97,1.444 -0.555,0.819 -0.758,1.803 -0.572,2.768 0.378,1.961 2.278,3.32 4.328,2.931 l 4.455,-0.857 c 1.835,-0.353 3.077,-2.018 2.975,-3.836 0.697,1.469 2.316,2.391 4.027,2.059 l 4.457,-0.857 c 1.795,-0.345 3.027,-1.948 2.985,-3.72 0.812,1.094 2.196,1.721 3.657,1.441 l 4.456,-0.857 c 1.556,-0.299 2.684,-1.543 2.935,-3.022 0.768,1.264 2.258,2.017 3.847,1.717 l 4.454,-0.857 c 0.967,-0.186 1.806,-0.739 2.36,-1.559 0.555,-0.818 0.758,-1.801 0.571,-2.769 -0.334,-1.736 -1.861,-2.996 -3.63,-2.996 -0.229,0 -0.463,0.021 -0.696,0.066 l -0.963,0.185 -0.58,-2.487 8.469,-2.087 0.682,2.925 -0.27,0.051 c -1.999,0.386 -3.314,2.327 -2.93,4.328 0.377,1.961 2.275,3.318 4.329,2.931 l 4.454,-0.858 c 2.001,-0.385 3.314,-2.326 2.931,-4.327 -0.334,-1.737 -1.863,-2.997 -3.631,-2.997 -0.229,0 -0.462,0.022 -0.697,0.067 l -1.374,0.264 -0.715,-3.069 7.478,-1.843 4.295,-11.929 20.305,-11.803 -11.346,-17.606 c -11.323,7.237 -18.9,12.12 -20.41,13.186 -8.589,4.772 -20.995,-4.294 -20.995,-4.294 0,0 -22.902,18.132 -32.445,27.674 -20.04,-7.634 -21.948,7.157 -21.948,9.066 0,1.908 3.339,14.314 14.791,12.405 m -0.636,-7.094 c 0,-0.987 0.802,-1.789 1.789,-1.789 0.987,0 1.79,0.802 1.79,1.789 0,0.987 -0.803,1.79 -1.79,1.79 -0.987,0 -1.789,-0.803 -1.789,-1.79 m 147.729,-65.161 -12.721,-19.739 c 3.298,-2.093 6.631,-4.209 9.985,-6.336 l 12.97,20.127 z m 6.933,-19.849 c 0,-1.479 1.203,-2.685 2.683,-2.685 1.481,0 2.684,1.206 2.684,2.685 0,1.48 -1.203,2.684 -2.684,2.684 -1.48,0 -2.683,-1.204 -2.683,-2.684 m 14.419,7.437 -13.239,-20.545 c -3.221,2.043 -6.438,4.084 -9.642,6.116 l 13,20.173 z m 36.634,-31.694 c 0,-1.48 1.203,-2.684 2.685,-2.684 1.479,0 2.682,1.204 2.682,2.684 0,1.48 -1.203,2.684 -2.682,2.684 -1.482,0 -2.685,-1.204 -2.685,-2.684 m -4.443,-7.002 c -1.481,0 -2.685,-1.205 -2.685,-2.684 0,-1.48 1.204,-2.685 2.685,-2.685 1.479,0 2.683,1.205 2.683,2.685 0,1.479 -1.204,2.684 -2.683,2.684 m 0.66,-10.922 14.136,21.933 -1.202,0.776 -14.135,-21.933 z m 7.889,-5.084 14.134,21.933 -1.202,0.776 -14.134,-21.933 z m 7.748,-4.033 14.135,21.935 -1.202,0.776 -14.135,-21.932 z m 6.71,-3.858 14.134,21.932 -1.202,0.777 -7.076,-10.978 c 0.013,0.099 0.031,0.196 0.031,0.299 0,1.48 -1.203,2.684 -2.683,2.684 -1.481,0 -2.685,-1.204 -2.685,-2.684 0,-1.479 1.204,-2.684 2.685,-2.684 0.5,0 0.964,0.147 1.365,0.387 l -5.771,-8.957 z m 6.534,-4.674 14.135,21.933 -1.202,0.776 -14.136,-21.935 z m 12.062,9.476 c 0,1.48 -1.203,2.683 -2.683,2.683 -1.481,0 -2.684,-1.203 -2.684,-2.683 0,-1.479 1.203,-2.684 2.684,-2.684 1.48,0 2.683,1.205 2.683,2.684 m -6.069,-12.876 14.136,21.932 -1.203,0.777 -14.134,-21.935 z m 5.488,-3.537 14.135,21.932 -1.201,0.777 -14.136,-21.934 z m 5.488,-3.536 6.032,9.357 c 0.356,0.319 0.624,0.729 0.771,1.198 l 7.332,11.377 -1.202,0.776 -6.408,-9.941 c -0.474,0.76 -1.311,1.27 -2.271,1.27 -1.481,0 -2.683,-1.204 -2.683,-2.684 0,-1.362 1.022,-2.476 2.338,-2.649 l -5.111,-7.93 z m 5.769,-2.308 4.792,7.436 c 0.222,-1.261 1.316,-2.223 2.639,-2.223 0.297,0 0.58,0.06 0.847,0.151 l -5.513,-8.556 1.203,-0.774 14.135,21.932 -1.202,0.777 -6.815,-10.574 c -0.139,1.35 -1.269,2.412 -2.655,2.412 -0.235,0 -0.457,-0.04 -0.673,-0.096 l 7.378,11.447 -1.203,0.776 -14.134,-21.934 z M 347.45,266.153 c -9.78,3.818 -12.642,0.716 -1.43,-8.828 11.213,-9.541 36.023,-9.304 50.577,-13.359 14.551,-4.055 22.424,-25.049 26.003,-31.014 3.579,-5.964 22.665,-30.536 31.254,-30.297 8.587,0.238 4.293,14.074 2.145,22.663 -2.145,8.589 0.479,17.893 4.057,25.05 0.762,1.527 2.147,4.034 3.892,7.086 -2.205,2.404 -3.078,5.727 -2.416,8.855 l -74.097,46.106 c -0.24,-0.202 -1.061,-0.644 -3.721,-0.735 -1.431,-26.003 -26.481,-29.344 -36.264,-25.527 m 119.024,-69.648 c 2.386,-10.265 5.088,-18.691 9.153,-18.306 4.067,0.382 5.552,9.155 5.572,19.694 0.032,17.684 -5.758,21.685 -9.825,21.301 -4.064,-0.382 -8.338,-7.911 -4.9,-22.689 m 7.883,69.435 0.583,0.83 c 0.481,0.684 1.045,1.293 1.669,1.828 l -76.369,43.244 -1.82,-2.767 z m -2.91,-4.135 2.082,2.959 -75.897,43.114 -1.865,-2.838 z m -2.888,-4.105 2.059,2.927 -75.623,43.204 0.162,0.282 -2.108,-3.206 z m -3.33,-4.734 2.503,3.558 -75.469,43.186 -1.741,-2.647 z m -2.095,-2.976 1.269,1.801 -74.668,44.076 -1.493,-2.27 73.714,-45.867 c 0.292,0.784 0.675,1.545 1.178,2.26 m 3.256,-12.79 1.852,-1.305 c 1.446,-1.018 3.148,-1.554 4.919,-1.554 2.811,0 5.445,1.36 7.047,3.638 l 11.806,16.78 c 2.724,3.872 1.788,9.24 -2.083,11.966 l -1.856,1.302 c -1.446,1.018 -3.146,1.556 -4.919,1.556 -1.342,0 -2.64,-0.318 -3.808,-0.89 l 11.179,-6.331 -0.704,-1.246 -11.865,6.717 c -0.7,-0.528 -1.332,-1.154 -1.847,-1.889 l -0.503,-0.715 11.979,-6.805 -0.707,-1.243 -12.1,6.873 -2.084,-2.964 12.407,-7.087 -0.71,-1.244 -12.525,7.154 -2.061,-2.929 12.492,-7.148 -0.71,-1.241 -12.609,7.214 -2.515,-3.573 12.057,-7.117 -0.727,-1.232 -12.153,7.175 -1.335,-1.897 c -0.489,-0.695 -0.856,-1.438 -1.112,-2.205 l 11.791,-7.337 -0.755,-1.215 -11.383,7.083 c -0.46,-3.111 0.798,-6.364 3.542,-8.291 m 9.173,62.352 c -16.7,9.782 -41.034,10.02 -55.586,16.054 -14.555,6.034 -24.096,19.97 -27.088,19.493 -2.994,-0.478 -2.019,-12.406 -2.019,-12.406 l 11.667,-7.358 -1.509,-2.295 76.866,-43.523 c 1.56,0.956 3.375,1.498 5.262,1.498 0.446,0 0.882,-0.043 1.318,-0.101 0.323,0.463 0.618,0.874 0.869,1.204 4.532,5.963 6.92,17.653 -9.78,27.434 m -100.856,32.983 c 20.936,3.757 11.63,28.27 0.359,35.427 -4.853,3.081 -9.156,8.155 -10.008,12.425 l -2.055,0.669 c -0.709,-1.336 -1.643,-2.14 -2.371,-1.913 -0.966,0.302 -1.196,2.31 -0.516,4.484 0.678,2.175 2.013,3.691 2.982,3.39 0.776,-0.244 1.068,-1.594 0.803,-3.242 l 1.206,-0.394 c 1.125,3.969 7.066,6.207 21.463,3.228 31.132,-6.442 42.95,-46.977 67.044,-52.703 43.301,-10.291 62.981,-7.276 84.453,-24.095 21.47,-16.819 22.186,-51.531 -3.22,-90.178 -0.198,-0.301 -0.39,-0.591 -0.587,-0.888 l 2.408,-1.184 c 0.934,1.406 2.076,2.211 2.818,1.858 0.914,-0.437 0.859,-2.456 -0.122,-4.512 -0.982,-2.057 -2.517,-3.37 -3.431,-2.933 -0.683,0.325 -0.824,1.532 -0.445,2.977 l -2.816,1.384 c -24.073,-36.401 -38.458,-53.782 -69.039,-47.875 -31.489,6.083 -49.74,62.266 -68.349,69.065 -18.609,6.8 -61.55,6.441 -61.55,29.344 0,22.902 18.605,-6.098 39.721,11.358 10.377,8.578 4.652,19.059 4.652,19.059 0,0 -25.543,16.158 -57.967,36.7 l 13.718,21.285 -1.202,0.776 -13.723,-21.295 c -2.335,1.478 -4.702,2.977 -7.099,4.496 l 13.76,21.349 -1.201,0.776 -13.768,-21.359 c -2.628,1.665 -5.285,3.349 -7.967,5.05 l 13.763,21.355 z m -40.644,16.043 c -0.692,0 -1.252,-0.561 -1.252,-1.252 0,-0.69 0.56,-1.252 1.252,-1.252 0.689,0 1.252,0.562 1.252,1.252 0,0.691 -0.563,1.252 -1.252,1.252 m -29.376,9.841 c 0,0.69 -0.563,1.252 -1.252,1.252 -0.693,0 -1.253,-0.562 -1.253,-1.252 0,-0.691 0.56,-1.253 1.253,-1.253 0.689,0 1.252,0.562 1.252,1.253 m 73.012,-47.038 c 0.275,0 0.513,0.106 0.718,0.256 l 0.484,0.749 c 0.016,0.082 0.05,0.159 0.05,0.247 0,0.691 -0.561,1.253 -1.252,1.253 -0.691,0 -1.252,-0.562 -1.252,-1.253 0,-0.691 0.561,-1.252 1.252,-1.252 m 8.946,-3.26 c -0.692,0 -1.253,-0.562 -1.253,-1.253 0,-0.69 0.561,-1.252 1.253,-1.252 0.689,0 1.251,0.562 1.251,1.252 0,0.691 -0.562,1.253 -1.251,1.253 m -32.247,20.336 c 0,0.691 -0.562,1.253 -1.252,1.253 -0.692,0 -1.252,-0.562 -1.252,-1.253 0,-0.69 0.56,-1.252 1.252,-1.252 0.69,0 1.252,0.562 1.252,1.252 m -50.963,32.646 c -1.482,0 -2.686,-1.205 -2.686,-2.684 0,-1.48 1.204,-2.685 2.686,-2.685 1.478,0 2.682,1.205 2.682,2.685 0,1.479 -1.204,2.684 -2.682,2.684 m 11.749,6.035 -13.734,-21.308 c -2.713,1.719 -5.443,3.449 -8.189,5.19 l 13.531,20.996 z m 13.004,-29.498 c 0,0.69 -0.564,1.253 -1.253,1.253 -0.692,0 -1.252,-0.563 -1.252,-1.253 0,-0.691 0.56,-1.252 1.252,-1.252 0.689,0 1.253,0.561 1.253,1.252 m 37.667,-17.663 c 0.69,0 1.252,0.56 1.252,1.252 0,0.69 -0.562,1.253 -1.252,1.253 -0.691,0 -1.252,-0.563 -1.252,-1.253 0,-0.692 0.561,-1.252 1.252,-1.252 m -81.595,51.606 c 0,0.69 -0.561,1.253 -1.252,1.253 -0.69,0 -1.253,-0.563 -1.253,-1.253 0,-0.69 0.563,-1.253 1.253,-1.253 0.691,0 1.252,0.563 1.252,1.253 m 11.723,6.717 -13.27,-20.591 c 3.118,-1.979 6.235,-3.954 9.339,-5.922 l 13.502,20.949 z M 246.825,263.588 c 0,-0.324 0.598,-0.328 0.598,0 0,0.165 -0.135,0.299 -0.298,0.299 -0.165,0 -0.3,-0.134 -0.3,-0.299 m -1.43,0 c 0,0.955 0.775,1.73 1.73,1.73 0.953,0 1.729,-0.775 1.729,-1.73 0,-0.953 -0.776,-1.73 -1.729,-1.73 -0.955,0 -1.73,0.777 -1.73,1.73 m -26.726,-11.626 c 0,-0.331 0.597,-0.328 0.597,0 0,0.164 -0.135,0.298 -0.3,0.298 -0.163,0 -0.297,-0.134 -0.297,-0.298 m -1.431,0 c 0,0.953 0.775,1.729 1.728,1.729 0.955,0 1.732,-0.776 1.732,-1.729 0,-0.955 -0.777,-1.731 -1.732,-1.731 -0.953,0 -1.728,0.776 -1.728,1.731 m -78.131,-63.999 c 0,0.163 -0.134,0.297 -0.299,0.297 -0.163,0 -0.297,-0.134 -0.297,-0.297 0,-0.329 0.596,-0.326 0.596,0 m 1.432,0 c 0,-0.954 -0.776,-1.73 -1.731,-1.73 -0.953,0 -1.729,0.776 -1.729,1.73 0,0.953 0.776,1.728 1.729,1.728 0.955,0 1.731,-0.775 1.731,-1.728 m 19.561,19.085 c 0,0.164 -0.133,0.299 -0.297,0.299 -0.164,0 -0.298,-0.135 -0.298,-0.299 0,-0.327 0.595,-0.327 0.595,0 m 1.432,0 c 0,-0.954 -0.776,-1.73 -1.729,-1.73 -0.954,0 -1.729,0.776 -1.729,1.73 0,0.954 0.775,1.73 1.729,1.73 0.953,0 1.729,-0.776 1.729,-1.73 m 7.396,31.969 c 0,0.163 -0.134,0.297 -0.297,0.297 -0.165,0 -0.3,-0.134 -0.3,-0.297 0,-0.329 0.597,-0.331 0.597,0 m 1.431,0 c 0,-0.955 -0.775,-1.731 -1.728,-1.731 -0.955,0 -1.732,0.776 -1.732,1.731 0,0.953 0.777,1.728 1.732,1.728 0.953,0 1.728,-0.775 1.728,-1.728 m 4.712,73.616 c 0,-0.327 0.596,-0.327 0.596,0 0,0.165 -0.134,0.3 -0.298,0.3 -0.163,0 -0.298,-0.135 -0.298,-0.3 m -1.431,0 c 0,0.955 0.776,1.729 1.729,1.729 0.954,0 1.729,-0.774 1.729,-1.729 0,-0.953 -0.775,-1.729 -1.729,-1.729 -0.953,0 -1.729,0.776 -1.729,1.729 m -22.844,-8.746 c 0,-0.328 0.597,-0.331 0.597,0 0,0.164 -0.134,0.298 -0.297,0.298 -0.166,0 -0.3,-0.134 -0.3,-0.298 m -1.431,0 c 0,0.953 0.776,1.729 1.731,1.729 0.953,0 1.729,-0.776 1.729,-1.729 0,-0.955 -0.776,-1.73 -1.729,-1.73 -0.955,0 -1.731,0.775 -1.731,1.73 m -42.942,-25.985 c 0,0.165 -0.134,0.299 -0.298,0.299 -0.163,0 -0.298,-0.134 -0.298,-0.299 0,-0.327 0.596,-0.327 0.596,0 m -0.298,-1.729 c -0.953,0 -1.729,0.776 -1.729,1.729 0,0.954 0.776,1.731 1.729,1.731 0.953,0 1.729,-0.777 1.729,-1.731 0,-0.953 -0.776,-1.729 -1.729,-1.729 m 17.356,22.902 c 0,-0.328 0.597,-0.325 0.597,0 0,0.165 -0.134,0.298 -0.299,0.298 -0.164,0 -0.298,-0.133 -0.298,-0.298 m -1.431,0 c 0,0.953 0.775,1.73 1.729,1.73 0.954,0 1.73,-0.777 1.73,-1.73 0,-0.953 -0.776,-1.728 -1.73,-1.728 -0.954,0 -1.729,0.775 -1.729,1.728 m 232.492,101.728 c 0,-0.692 0.562,-1.253 1.252,-1.253 0.691,0 1.253,0.561 1.253,1.253 0,0.689 -0.562,1.252 -1.253,1.252 -0.69,0 -1.252,-0.563 -1.252,-1.252 m -24.274,-1.729 12.396,-19.236 c 4.026,2.557 7.954,5.053 11.757,7.472 l -12.097,18.773 z m 120.79,56.803 c -0.988,0 -1.789,-0.802 -1.789,-1.789 0,-0.987 0.801,-1.789 1.789,-1.789 0.986,0 1.789,0.802 1.789,1.789 0,0.987 -0.803,1.789 -1.789,1.789 M 332.584,384.978 c 0,1.48 -1.203,2.684 -2.683,2.684 -1.481,0 -2.685,-1.204 -2.685,-2.684 0,-1.48 1.204,-2.684 2.685,-2.684 1.48,0 2.683,1.204 2.683,2.684 m 8.872,-5.908 c -3.413,-2.17 -6.883,-4.373 -10.407,-6.609 l -12.69,19.691 10.671,6.202 z m -11.555,4.656 c 0.69,0 1.252,0.561 1.252,1.252 0,0.691 -0.562,1.252 -1.252,1.252 -0.691,0 -1.253,-0.561 -1.253,-1.252 0,-0.691 0.562,-1.252 1.253,-1.252 m 109.7,69.646 c -0.987,0 -1.789,-0.802 -1.789,-1.789 0,-0.987 0.802,-1.789 1.789,-1.789 0.986,0 1.789,0.802 1.789,1.789 0,0.987 -0.803,1.789 -1.789,1.789 m -82.15,-38.494 11.718,-18.183 c 4.635,2.953 8.94,5.699 12.832,8.186 l -11.377,17.655 z m 70.705,35.108 c -0.987,0 -1.789,-0.802 -1.789,-1.789 0,-0.987 0.802,-1.789 1.789,-1.789 0.988,0 1.789,0.802 1.789,1.789 0,0.987 -0.801,1.789 -1.789,1.789 m -23.583,-5.623 c -0.988,0 -1.789,-0.802 -1.789,-1.789 0,-0.987 0.801,-1.789 1.789,-1.789 0.988,0 1.789,0.802 1.789,1.789 0,0.987 -0.801,1.789 -1.789,1.789 m 11.775,3.118 c -0.988,0 -1.789,-0.802 -1.789,-1.789 0,-0.987 0.801,-1.789 1.789,-1.789 0.985,0 1.788,0.802 1.788,1.789 0,0.987 -0.803,1.789 -1.788,1.789 m -60.554,-43.995 c -1.48,0 -2.683,-1.205 -2.683,-2.683 0,-1.481 1.203,-2.686 2.683,-2.686 1.481,0 2.685,1.205 2.685,2.686 0,1.478 -1.204,2.683 -2.685,2.683 m 0.418,10.672 11.749,-18.231 c -3.909,-2.49 -8.028,-5.113 -12.332,-7.849 l -12.066,18.725 z m 110.071,42.435 c 0,1.776 -1.446,3.221 -3.22,3.221 -1.777,0 -3.222,-1.445 -3.222,-3.221 0,-1.776 1.445,-3.221 3.222,-3.221 1.774,0 3.22,1.445 3.22,3.221 m -3.34,11.605 c 0.216,0.042 0.405,0.167 0.531,0.353 0.124,0.185 0.17,0.405 0.13,0.621 -0.076,0.387 -0.428,0.677 -0.821,0.677 -0.051,0 -0.104,-0.005 -0.156,-0.015 l -4.455,-0.857 c -0.443,-0.086 -0.745,-0.532 -0.659,-0.976 0.082,-0.435 0.529,-0.748 0.974,-0.66 z m -8.665,-14.11 c 0,1.776 -1.446,3.221 -3.22,3.221 -1.776,0 -3.222,-1.445 -3.222,-3.221 0,-1.776 1.446,-3.221 3.222,-3.221 1.774,0 3.22,1.445 3.22,3.221 m -11.457,-2.505 c 0,1.776 -1.446,3.221 -3.22,3.221 -1.776,0 -3.222,-1.445 -3.222,-3.221 0,-1.776 1.446,-3.22 3.222,-3.22 1.774,0 3.22,1.444 3.22,3.22 m -11.445,-3.386 c 0,1.776 -1.444,3.221 -3.22,3.221 -1.776,0 -3.22,-1.445 -3.22,-3.221 0,-1.776 1.444,-3.221 3.22,-3.221 1.776,0 3.22,1.445 3.22,3.221 m -4.413,6.309 -0.437,1.877 -1.643,-0.316 c -0.234,-0.046 -0.467,-0.067 -0.695,-0.067 -1.318,0 -2.497,0.699 -3.154,1.771 -0.254,-1.473 -1.381,-2.711 -2.932,-3.009 l -0.68,-0.131 0.546,-2.343 z m -7.395,-8.814 c 0,1.776 -1.446,3.22 -3.22,3.22 -1.776,0 -3.222,-1.444 -3.222,-3.22 0,-1.776 1.446,-3.221 3.222,-3.221 1.774,0 3.22,1.445 3.22,3.221 m -2.007,11.881 c 0.442,0.085 0.745,0.533 0.659,0.977 -0.073,0.384 -0.427,0.674 -0.82,0.674 -0.05,0 -0.104,-0.005 -0.156,-0.015 l -4.454,-0.857 c -0.443,-0.086 -0.746,-0.532 -0.661,-0.976 0.084,-0.435 0.53,-0.742 0.975,-0.66 z m 5.806,1.965 c 0.084,-0.432 0.517,-0.745 0.975,-0.66 l 4.454,0.858 c 0.445,0.085 0.746,0.531 0.661,0.975 -0.073,0.384 -0.424,0.675 -0.818,0.675 -0.053,0 -0.105,-0.005 -0.156,-0.015 l -4.456,-0.857 c -0.444,-0.085 -0.745,-0.532 -0.66,-0.976 m 5.971,-2.613 0.404,-1.734 8.794,2.168 -0.52,2.236 -2.033,-0.392 c -0.236,-0.045 -0.468,-0.066 -0.699,-0.066 -1.202,0 -2.279,0.588 -2.959,1.503 0.042,-1.771 -1.19,-3.37 -2.987,-3.715 m 5.128,5.749 c 0.082,-0.435 0.526,-0.747 0.974,-0.66 l 4.456,0.857 c 0.443,0.086 0.747,0.533 0.661,0.976 -0.075,0.384 -0.427,0.674 -0.821,0.674 -0.05,0 -0.104,-0.004 -0.156,-0.014 l -4.455,-0.857 c -0.441,-0.085 -0.745,-0.533 -0.659,-0.976 m 6.353,-2.5 0.497,-2.131 8.407,2.072 -0.483,2.068 -1.8,-0.346 c -0.234,-0.045 -0.467,-0.066 -0.697,-0.066 -1.453,0 -2.727,0.855 -3.33,2.119 0.045,-0.802 -0.158,-1.594 -0.618,-2.272 -0.477,-0.707 -1.175,-1.199 -1.976,-1.444 m 5.105,5.134 c 0.082,-0.435 0.529,-0.749 0.975,-0.66 l 4.456,0.857 c 0.215,0.042 0.404,0.167 0.529,0.353 0.125,0.185 0.172,0.406 0.132,0.621 -0.075,0.387 -0.428,0.677 -0.822,0.677 -0.049,0 -0.104,-0.005 -0.156,-0.015 l -4.455,-0.857 c -0.441,-0.085 -0.744,-0.532 -0.659,-0.976 m -38.131,-22.734 c 0,1.776 -1.444,3.221 -3.22,3.221 -1.776,0 -3.22,-1.445 -3.22,-3.221 0,-1.776 1.444,-3.221 3.22,-3.221 1.776,0 3.22,1.445 3.22,3.221 m -2.027,12.73 c 0.442,0.085 0.744,0.532 0.659,0.976 -0.072,0.384 -0.427,0.674 -0.821,0.674 -0.05,0 -0.103,-0.005 -0.154,-0.014 l -4.455,-0.858 c -0.444,-0.085 -0.746,-0.531 -0.661,-0.975 0.084,-0.434 0.528,-0.744 0.976,-0.66 z m 73.24,-4.022 c 0,-1.909 -1.907,-16.7 -21.947,-9.066 -9.543,-9.542 -32.446,-27.674 -32.446,-27.674 0,0 -12.407,9.066 -20.996,4.294 -1.508,-1.066 -9.086,-5.949 -20.41,-13.186 l -11.345,17.606 20.304,11.803 4.295,11.929 7.479,1.843 -0.715,3.069 -1.374,-0.264 c -0.234,-0.045 -0.468,-0.067 -0.697,-0.067 -1.769,0 -3.296,1.26 -3.631,2.997 -0.383,2.001 0.929,3.942 2.93,4.327 l 4.456,0.858 c 2.052,0.387 3.951,-0.97 4.329,-2.931 0.382,-2.001 -0.931,-3.942 -2.931,-4.328 l -0.271,-0.051 0.682,-2.925 8.47,2.087 -0.58,2.487 -0.962,-0.185 c -0.235,-0.045 -0.467,-0.066 -0.697,-0.066 -1.768,0 -3.296,1.26 -3.63,2.996 -0.187,0.968 0.016,1.951 0.572,2.769 0.553,0.82 1.392,1.373 2.358,1.559 l 4.454,0.857 c 1.589,0.3 3.08,-0.453 3.848,-1.717 0.251,1.479 1.38,2.723 2.935,3.022 l 4.456,0.857 c 1.461,0.28 2.844,-0.347 3.658,-1.441 -0.042,1.772 1.188,3.375 2.984,3.72 l 4.457,0.857 c 1.711,0.332 3.329,-0.59 4.028,-2.059 -0.103,1.818 1.138,3.483 2.974,3.836 l 4.454,0.857 c 2.051,0.389 3.952,-0.97 4.329,-2.931 0.185,-0.965 -0.016,-1.949 -0.572,-2.768 -0.477,-0.705 -1.172,-1.198 -1.97,-1.444 l 0.456,-1.95 8.399,2.07 -0.448,1.921 -1.663,-0.32 c -0.234,-0.044 -0.466,-0.066 -0.697,-0.066 -1.77,0 -3.297,1.26 -3.631,2.998 -0.384,1.999 0.931,3.94 2.93,4.326 l 4.456,0.857 c 2.049,0.392 3.95,-0.969 4.327,-2.931 0.188,-0.966 -0.016,-1.949 -0.571,-2.768 -0.516,-0.764 -1.282,-1.282 -2.167,-1.502 l 0.417,-1.787 0.123,0.03 c 11.451,1.909 14.791,-10.497 14.791,-12.405 m -15.943,7.101 c -0.988,0 -1.79,-0.803 -1.79,-1.79 0,-0.987 0.802,-1.789 1.79,-1.789 0.985,0 1.789,0.802 1.789,1.789 0,0.987 -0.804,1.79 -1.789,1.79 m -145.942,-66.951 -10.232,-5.948 11.299,-17.533 3.02,-1.736 c 2.896,1.837 5.783,3.669 8.634,5.478 z m -9.616,-17.165 c 1.086,0 2.019,-0.652 2.442,-1.58 l 5.538,-3.183 -9.834,15.26 -8.314,-4.832 9.905,-5.692 c 0.087,0.008 0.172,0.027 0.263,0.027 M 256.451,350.01 c -1.48,0 -2.683,-1.204 -2.683,-2.684 0,-1.48 1.203,-2.684 2.683,-2.684 1.481,0 2.684,1.204 2.684,2.684 0,1.48 -1.203,2.684 -2.684,2.684 m 4.444,-12.37 c 0,-1.48 1.204,-2.685 2.684,-2.685 1.481,0 2.684,1.205 2.684,2.685 0,1.479 -1.203,2.684 -2.684,2.684 -1.48,0 -2.684,-1.205 -2.684,-2.684 m 3.225,-7.462 -14.135,21.933 -1.202,-0.776 14.135,-21.933 z m -7.888,-5.084 -14.135,21.933 -1.202,-0.776 14.135,-21.933 z m -7.748,-4.03 -14.135,21.932 -1.202,-0.776 14.135,-21.935 z m -6.71,-3.861 -5.772,8.957 c 0.402,-0.24 0.865,-0.387 1.366,-0.387 1.48,0 2.684,1.205 2.684,2.684 0,1.48 -1.204,2.684 -2.684,2.684 -1.48,0 -2.684,-1.204 -2.684,-2.684 0,-0.103 0.019,-0.2 0.031,-0.299 l -7.076,10.978 -1.202,-0.777 14.135,-21.932 z m -6.533,-4.676 -14.136,21.935 -1.201,-0.776 14.134,-21.933 z m -10.582,6.018 c 1.48,0 2.683,1.205 2.683,2.684 0,1.48 -1.203,2.683 -2.683,2.683 -1.481,0 -2.684,-1.203 -2.684,-2.683 0,-1.479 1.203,-2.684 2.684,-2.684 m 4.587,-9.418 -14.134,21.935 -1.203,-0.777 14.135,-21.932 z m -5.488,-3.536 -14.135,21.934 -1.202,-0.777 14.135,-21.932 z m -5.487,-3.537 -5.112,7.93 c 1.316,0.173 2.339,1.287 2.339,2.649 0,1.48 -1.203,2.684 -2.683,2.684 -0.961,0 -1.798,-0.51 -2.272,-1.27 l -6.408,9.941 -1.202,-0.776 7.332,-11.377 c 0.148,-0.469 0.415,-0.879 0.773,-1.198 l 6.031,-9.357 z m -5.77,-2.308 -14.134,21.934 -1.203,-0.776 7.378,-11.447 c -0.216,0.056 -0.439,0.096 -0.673,0.096 -1.386,0 -2.517,-1.062 -2.655,-2.412 l -6.814,10.574 -1.203,-0.777 14.135,-21.932 1.202,0.774 -5.513,8.556 c 0.268,-0.091 0.551,-0.151 0.848,-0.151 1.323,0 2.417,0.962 2.638,2.223 l 4.792,-7.436 z M 206.8,291.68 c -2.66,0.091 -3.481,0.533 -3.72,0.735 l -74.097,-46.106 c 0.661,-3.128 -0.213,-6.451 -2.417,-8.855 1.744,-3.052 3.13,-5.559 3.893,-7.086 3.578,-7.157 6.202,-16.461 4.055,-25.05 -2.147,-8.589 -6.441,-22.425 2.147,-22.663 8.589,-0.239 27.675,24.333 31.254,30.297 3.578,5.965 11.451,26.959 26.002,31.014 14.553,4.055 39.364,3.818 50.577,13.359 11.212,9.544 8.35,12.646 -1.431,8.828 -9.782,-3.817 -34.832,-0.476 -36.263,25.527 m -87.661,-72.486 c -4.066,0.384 -9.856,-3.617 -9.824,-21.301 0.02,-10.539 1.506,-19.312 5.572,-19.694 4.066,-0.385 6.767,8.041 9.154,18.306 3.436,14.778 -0.836,22.307 -4.902,22.689 m -20.638,35.565 11.805,-16.78 c 1.602,-2.278 4.237,-3.638 7.047,-3.638 1.772,0 3.473,0.536 4.919,1.554 l 1.853,1.305 c 2.743,1.927 4.002,5.18 3.542,8.291 l -11.384,-7.083 -0.754,1.215 11.79,7.337 c -0.257,0.767 -0.623,1.51 -1.111,2.205 l -1.335,1.897 -12.154,-7.175 -0.727,1.232 12.057,7.117 -2.515,3.573 -12.609,-7.214 -0.71,1.241 12.492,7.148 -2.061,2.929 -12.524,-7.154 -0.71,1.244 12.406,7.087 -2.084,2.964 -12.1,-6.873 -0.707,1.243 11.98,6.805 -0.504,0.715 c -0.515,0.735 -1.147,1.361 -1.848,1.889 l -11.863,-6.717 -0.705,1.246 11.18,6.331 c -1.169,0.572 -2.467,0.89 -3.809,0.89 -1.772,0 -3.474,-0.538 -4.919,-1.556 l -1.855,-1.302 c -3.872,-2.726 -4.807,-8.094 -2.083,-11.966 m 93.592,54.316 -1.819,2.767 -76.368,-43.244 c 0.623,-0.535 1.186,-1.144 1.669,-1.828 l 0.583,-0.83 z m 2.654,-4.035 -1.866,2.838 -75.896,-43.114 2.083,-2.959 z m -68.635,-53.249 1.268,-1.801 c 0.503,-0.715 0.885,-1.476 1.178,-2.26 l 73.714,45.867 -1.493,2.27 z m 73.88,45.272 -1.741,2.647 -75.469,-43.186 2.503,-3.558 z m -4.474,6.768 -75.623,-43.204 2.061,-2.927 75.509,43.207 -2.108,3.206 z M 105.17,272.118 c 0.252,-0.33 0.547,-0.741 0.871,-1.204 0.435,0.058 0.872,0.101 1.317,0.101 1.888,0 3.701,-0.542 5.263,-1.498 l 76.865,43.523 -1.51,2.295 11.667,7.358 c 0,0 0.976,11.928 -2.018,12.406 -2.992,0.477 -12.534,-13.459 -27.087,-19.493 -14.553,-6.034 -38.887,-6.272 -55.586,-16.054 -16.7,-9.781 -14.314,-21.471 -9.782,-27.434 m 175.81,83.616 6.876,-10.67 c -2.683,-1.701 -5.34,-3.385 -7.968,-5.05 l -13.766,21.359 -1.203,-0.776 13.76,-21.349 c -2.396,-1.519 -4.763,-3.018 -7.097,-4.496 l -13.724,21.295 -1.202,-0.776 13.718,-21.285 c -32.424,-20.542 -57.967,-36.7 -57.967,-36.7 0,0 -5.726,-10.481 4.652,-19.059 21.115,-17.456 39.721,11.544 39.721,-11.358 0,-22.903 -42.942,-22.544 -61.55,-29.344 -18.608,-6.799 -36.859,-62.982 -68.349,-69.065 -30.581,-5.907 -44.965,11.474 -69.039,47.875 l -2.816,-1.384 c 0.379,-1.445 0.238,-2.652 -0.444,-2.977 -0.914,-0.437 -2.45,0.876 -3.432,2.933 -0.981,2.056 -1.036,4.075 -0.121,4.512 0.74,0.353 1.884,-0.452 2.816,-1.858 l 2.409,1.184 c -0.198,0.297 -0.389,0.587 -0.586,0.888 -25.407,38.647 -24.692,73.359 -3.221,90.178 21.471,16.819 41.152,13.804 84.453,24.095 24.095,5.726 35.911,46.261 67.044,52.703 14.396,2.979 20.338,0.741 21.463,-3.228 l 1.206,0.394 c -0.266,1.648 0.026,2.998 0.803,3.242 0.968,0.301 2.303,-1.215 2.982,-3.39 0.681,-2.174 0.449,-4.182 -0.517,-4.484 -0.726,-0.227 -1.662,0.577 -2.371,1.913 l -2.054,-0.669 c -0.853,-4.27 -5.156,-9.344 -10.007,-12.425 -11.273,-7.157 -20.578,-31.67 0.357,-35.427 l 52.78,30.684 z m -25.781,-8.408 c 0,-0.69 0.562,-1.252 1.252,-1.252 0.691,0 1.253,0.562 1.253,1.252 0,0.691 -0.562,1.252 -1.253,1.252 -0.69,0 -1.252,-0.561 -1.252,-1.252 m -41.132,-34.693 c 0,0.691 -0.562,1.253 -1.252,1.253 -0.691,0 -1.253,-0.562 -1.253,-1.253 0,-0.088 0.034,-0.165 0.051,-0.247 l 0.483,-0.749 c 0.206,-0.15 0.444,-0.256 0.719,-0.256 0.69,0 1.252,0.561 1.252,1.252 m -11.45,-5.765 c 0,-0.69 0.562,-1.252 1.252,-1.252 0.691,0 1.253,0.562 1.253,1.252 0,0.691 -0.562,1.253 -1.253,1.253 -0.69,0 -1.252,-0.562 -1.252,-1.253 m 34.751,20.337 c 0.691,0 1.252,0.562 1.252,1.252 0,0.691 -0.561,1.253 -1.252,1.253 -0.691,0 -1.252,-0.562 -1.252,-1.253 0,-0.69 0.561,-1.252 1.252,-1.252 m 55.752,21.195 -9.354,5.651 5.298,-8.221 c 1.345,0.851 2.705,1.714 4.056,2.57 m -29.541,-12.012 c 0.691,0 1.252,0.561 1.252,1.252 0,0.69 -0.561,1.253 -1.252,1.253 -0.69,0 -1.253,-0.563 -1.253,-1.253 0,-0.691 0.563,-1.252 1.253,-1.252 m -38.92,-16.411 c -0.691,0 -1.252,0.56 -1.252,1.252 0,0.69 0.561,1.253 1.252,1.253 0.69,0 1.252,-0.563 1.252,-1.253 0,-0.692 -0.562,-1.252 -1.252,-1.252"
           style="fill:#000000;fill-opacity:1;fill-rule:nonzero;stroke:none"
           id="path3181"
           inkscape:connector-curvature="0" /></g></g></g></svg>